<svg viewBox="0 0 1189.67 185.61" xmlns="http://www.w3.org/2000/svg"><path d="m0 2.58h43.31c14.09 0 24.66 3.78 31.71 11.34 7.04 7.56 10.57 18.65 10.57 33.26v91.26c0 14.61-3.52 25.69-10.57 33.25s-17.62 11.34-31.71 11.34h-43.31zm42.79 154.67c4.64 0 8.21-1.37 10.7-4.12s3.74-7.22 3.74-13.4v-93.84c0-6.19-1.25-10.65-3.74-13.41-2.49-2.75-6.06-4.12-10.7-4.12h-14.44v128.89z"/><path d="m104.66 2.58h28.36v180.45h-28.36z"/><path d="m154.15 2.58h28.36v154.67h46.66v25.78h-75.02z"/><path d="m242.83 2.58h28.36v154.67h46.66v25.78h-75.02z"/><path d="m339.5 173.75c-7.39-7.9-11.08-19.08-11.08-33.51v-94.87c0-14.44 3.69-25.61 11.08-33.51s18.05-11.86 31.97-11.86 24.57 3.96 31.97 11.86c7.39 7.91 11.08 19.08 11.08 33.51v94.87c0 14.44-3.7 25.61-11.08 33.51-7.39 7.91-18.05 11.86-31.97 11.86s-24.58-3.95-31.97-11.86zm46.66-31.71v-98.47c0-11.86-4.9-17.79-14.69-17.79s-14.69 5.93-14.69 17.79v98.48c0 11.86 4.9 17.79 14.69 17.79s14.69-5.93 14.69-17.79z"/><path d="m433.59 2.58h35.58l27.58 108.01h.52v-108.01h25.26v180.45h-29.13l-34.03-131.73h-.52v131.73h-25.26z"/><path d="m543.67 2.58h42.79c14.61 0 25.26 3.4 31.97 10.18 6.7 6.79 10.05 17.23 10.05 31.32v7.22c0 9.28-1.51 16.84-4.51 22.69-3.01 5.84-7.6 10.05-13.79 12.63v.52c14.09 4.81 21.14 17.36 21.14 37.64v15.47c0 13.92-3.65 24.53-10.96 31.84s-18 10.96-32.09 10.96h-44.6zm39.44 73.47c5.67 0 9.92-1.46 12.76-4.38 2.83-2.92 4.25-7.82 4.25-14.69v-10.05c0-6.53-1.16-11.25-3.48-14.18-2.32-2.92-5.97-4.38-10.96-4.38h-13.66v47.69h11.08zm5.16 81.2c4.98 0 8.68-1.33 11.08-4 2.41-2.66 3.61-7.26 3.61-13.79v-15.73c0-8.25-1.42-13.96-4.25-17.14s-7.52-4.77-14.05-4.77h-12.63v55.42h16.24z"/><path d="m669.72 2.58h38.41l29.39 180.45h-28.36l-5.16-35.83v.52h-32.22l-5.16 35.32h-26.29zm30.93 120.65-12.63-89.2h-.52l-12.37 89.2z"/><path d="m751.18 2.58h28.36v180.45h-28.36z"/><path d="m800.68 2.58h42.02c14.61 0 25.26 3.4 31.97 10.18 6.7 6.79 10.05 17.23 10.05 31.32v11.08c0 18.73-6.19 30.59-18.56 35.58v.52c6.87 2.06 11.73 6.28 14.57 12.63 2.84 6.36 4.25 14.87 4.25 25.52v31.71c0 5.16.17 9.32.52 12.5.34 3.18 1.2 6.32 2.58 9.41h-28.87c-1.03-2.92-1.72-5.67-2.06-8.25-.35-2.58-.52-7.22-.52-13.92v-33c0-8.25-1.33-14.01-4-17.27s-7.26-4.9-13.79-4.9h-9.8v77.34h-28.36zm38.67 77.34c5.67 0 9.92-1.46 12.76-4.38 2.83-2.92 4.25-7.82 4.25-14.69v-13.92c0-6.53-1.16-11.25-3.48-14.18-2.32-2.92-5.97-4.38-10.96-4.38h-12.89v51.56h10.31z"/><path d="m904.56 2.58h43.31c14.09 0 24.66 3.78 31.71 11.34 7.04 7.56 10.57 18.65 10.57 33.26v91.26c0 14.61-3.52 25.69-10.57 33.25s-17.62 11.34-31.71 11.34h-43.31zm42.79 154.67c4.64 0 8.21-1.37 10.7-4.12s3.74-7.22 3.74-13.4v-93.84c0-6.19-1.25-10.65-3.74-13.41-2.49-2.75-6.06-4.12-10.7-4.12h-14.44v128.89z"/><path d="m1007.68 155.71h27.33v27.33h-27.33z"/><path d="m1056.14 2.58h28.36v180.45h-28.36z"/><path d="m1114.66 173.75c-7.39-7.9-11.08-19.08-11.08-33.51v-94.87c0-14.44 3.69-25.61 11.08-33.51s18.05-11.86 31.97-11.86 24.57 3.96 31.97 11.86c7.39 7.91 11.08 19.08 11.08 33.51v94.87c0 14.44-3.7 25.61-11.08 33.51-7.39 7.91-18.05 11.86-31.97 11.86s-24.58-3.95-31.97-11.86zm46.66-31.71v-98.47c0-11.86-4.9-17.79-14.69-17.79s-14.69 5.93-14.69 17.79v98.48c0 11.86 4.9 17.79 14.69 17.79s14.69-5.93 14.69-17.79z"/></svg>